<?xml version="1.0" encoding="UTF-8"?>
<svg width="1440px" height="489px" viewBox="0 0 1440 489" version="1.1" xmlns="http://www.w3.org/2000/svg" xmlns:xlink="http://www.w3.org/1999/xlink">
    <title>footer-bg</title>
    <defs>
        <linearGradient x1="50%" y1="0%" x2="50%" y2="100%" id="linearGradient-1">
            <stop stop-color="#02B7DE" offset="0%"></stop>
            <stop stop-color="#15BDE1" offset="100%"></stop>
        </linearGradient>
        <circle id="path-2" cx="34" cy="4" r="4"></circle>
        <mask id="mask-3" maskContentUnits="userSpaceOnUse" maskUnits="objectBoundingBox" x="0" y="0" width="8" height="8" fill="white">
            <use xlink:href="#path-2"></use>
        </mask>
        <circle id="path-4" cx="34" cy="32" r="4"></circle>
        <mask id="mask-5" maskContentUnits="userSpaceOnUse" maskUnits="objectBoundingBox" x="0" y="0" width="8" height="8" fill="white">
            <use xlink:href="#path-4"></use>
        </mask>
        <circle id="path-6" cx="62" cy="4" r="4"></circle>
        <mask id="mask-7" maskContentUnits="userSpaceOnUse" maskUnits="objectBoundingBox" x="0" y="0" width="8" height="8" fill="white">
            <use xlink:href="#path-6"></use>
        </mask>
        <circle id="path-8" cx="62" cy="32" r="4"></circle>
        <mask id="mask-9" maskContentUnits="userSpaceOnUse" maskUnits="objectBoundingBox" x="0" y="0" width="8" height="8" fill="white">
            <use xlink:href="#path-8"></use>
        </mask>
        <circle id="path-10" cx="90" cy="4" r="4"></circle>
        <mask id="mask-11" maskContentUnits="userSpaceOnUse" maskUnits="objectBoundingBox" x="0" y="0" width="8" height="8" fill="white">
            <use xlink:href="#path-10"></use>
        </mask>
        <circle id="path-12" cx="90" cy="32" r="4"></circle>
        <mask id="mask-13" maskContentUnits="userSpaceOnUse" maskUnits="objectBoundingBox" x="0" y="0" width="8" height="8" fill="white">
            <use xlink:href="#path-12"></use>
        </mask>
        <circle id="path-14" cx="118" cy="4" r="4"></circle>
        <mask id="mask-15" maskContentUnits="userSpaceOnUse" maskUnits="objectBoundingBox" x="0" y="0" width="8" height="8" fill="white">
            <use xlink:href="#path-14"></use>
        </mask>
        <circle id="path-16" cx="118" cy="32" r="4"></circle>
        <mask id="mask-17" maskContentUnits="userSpaceOnUse" maskUnits="objectBoundingBox" x="0" y="0" width="8" height="8" fill="white">
            <use xlink:href="#path-16"></use>
        </mask>
        <circle id="path-18" cx="146" cy="4" r="4"></circle>
        <mask id="mask-19" maskContentUnits="userSpaceOnUse" maskUnits="objectBoundingBox" x="0" y="0" width="8" height="8" fill="white">
            <use xlink:href="#path-18"></use>
        </mask>
        <circle id="path-20" cx="146" cy="32" r="4"></circle>
        <mask id="mask-21" maskContentUnits="userSpaceOnUse" maskUnits="objectBoundingBox" x="0" y="0" width="8" height="8" fill="white">
            <use xlink:href="#path-20"></use>
        </mask>
    </defs>
    <g id="footer-bg" stroke="none" stroke-width="1" fill="none" fill-rule="evenodd">
        <rect id="Rectangle" x="0" y="0" width="1440" height="489"></rect>
        <path d="M101.650614,145.263789 C145.17685,187.06849 184.404199,244.415963 171.507536,284.88077 C158.342193,325.345576 92.5154784,348.927714 32.5997338,374.117726 C-27.5846912,399.039759 -82.1268263,425.033708 -126.190423,411.098807 C-169.98534,396.895928 -203.570398,342.496222 -221.57199,280.05715 C-239.842262,217.3501 -242.797747,146.603683 -209.212688,106.674835 C-175.89631,67.0139653 -105.770708,58.1706633 -47.1983654,67.2819442 C11.3739768,76.3932251 58.3930588,103.19111 101.650614,145.263789 Z" id="Path-Copy-12" fill="url(#linearGradient-1)" fill-rule="nonzero"></path>
        <path d="M1525.65061,326.263789 C1569.17685,368.06849 1608.4042,425.415963 1595.50754,465.88077 C1582.34219,506.345576 1516.51548,529.927714 1456.59973,555.117726 C1396.41531,580.039759 1341.87317,606.033708 1297.80958,592.098807 C1254.01466,577.895928 1220.4296,523.496222 1202.42801,461.05715 C1184.15774,398.3501 1181.20225,327.603683 1214.78731,287.674835 C1248.10369,248.013965 1318.22929,239.170663 1376.80163,248.281944 C1435.37398,257.393225 1482.39306,284.19111 1525.65061,326.263789 Z" id="Path-Copy-13" fill="url(#linearGradient-1)" fill-rule="nonzero" transform="translate(1393.500000, 420.500000) rotate(154.000000) translate(-1393.500000, -420.500000) "></path>
        <g id="Group-7-Copy-17" opacity="0.5" transform="translate(-34.000000, 455.000000)" stroke="#FFFFFF" stroke-dasharray="13,8" stroke-width="2">
            <use id="Oval-Copy-2" mask="url(#mask-3)" xlink:href="#path-2"></use>
            <use id="Oval-Copy-8" mask="url(#mask-5)" transform="translate(34.000000, 32.000000) rotate(140.000000) translate(-34.000000, -32.000000) " xlink:href="#path-4"></use>
            <use id="Oval-Copy-3" mask="url(#mask-7)" xlink:href="#path-6"></use>
            <use id="Oval-Copy-9" mask="url(#mask-9)" transform="translate(62.000000, 32.000000) rotate(140.000000) translate(-62.000000, -32.000000) " xlink:href="#path-8"></use>
            <use id="Oval-Copy-4" mask="url(#mask-11)" xlink:href="#path-10"></use>
            <use id="Oval-Copy-10" mask="url(#mask-13)" transform="translate(90.000000, 32.000000) rotate(140.000000) translate(-90.000000, -32.000000) " xlink:href="#path-12"></use>
            <use id="Oval-Copy-5" mask="url(#mask-15)" xlink:href="#path-14"></use>
            <use id="Oval-Copy-11" mask="url(#mask-17)" transform="translate(118.000000, 32.000000) rotate(140.000000) translate(-118.000000, -32.000000) " xlink:href="#path-16"></use>
            <use id="Oval-Copy-6" mask="url(#mask-19)" xlink:href="#path-18"></use>
            <use id="Oval-Copy-12" mask="url(#mask-21)" transform="translate(146.000000, 32.000000) rotate(140.000000) translate(-146.000000, -32.000000) " xlink:href="#path-20"></use>
        </g>
    </g>
</svg>