<?xml version="1.0" encoding="UTF-8"?>
<svg width="115px" height="67px" viewBox="0 0 115 67" version="1.1" xmlns="http://www.w3.org/2000/svg" xmlns:xlink="http://www.w3.org/1999/xlink">
    <title>logo</title>
    <g id="Page-2" stroke="none" stroke-width="1" fill="none" fill-rule="evenodd">
        <g id="logo" fill-rule="nonzero">
            <path d="M7.59599955,56.4899966 L5.0159997,56.4899966 L5.0159997,66.287996 L2.57999985,66.287996 L2.57999985,56.4899966 L-2.06057393e-13,56.4899966 L-2.06057393e-13,54.0539968 L7.59599955,54.0539968 L7.59599955,56.4899966 Z M15.5879991,66.287996 L14.7479991,64.0679962 L11.2199993,64.0679962 L10.3679994,66.317996 L7.75799954,66.317996 L12.3899993,54.0839968 L13.5899992,54.0839968 L18.2099989,66.317996 L15.5879991,66.287996 Z M12.0479993,61.8539963 L13.9199992,61.8539963 L13.0019992,59.4059965 L13.0019992,59.4059965 L12.0479993,61.8539963 Z M33.965998,60.1919964 L39.1499977,66.299996 L36.2879978,66.299996 L32.5379981,61.8719963 L31.8299981,62.7119963 L31.8299981,66.311996 L29.3879982,66.311996 L29.3879982,54.0719968 L31.8479981,54.0719968 L31.8479981,59.3399965 L32.3219981,58.7399965 L36.3059978,54.0419968 L39.1679977,54.0419968 L37.0199978,56.5739966 L37.0199978,56.5739966 L33.965998,60.1919964 Z M47.3279972,56.4899966 L47.3279972,58.9619965 L51.4859969,58.9619965 L51.4859969,61.3979963 L47.3279972,61.3979963 L47.3279972,63.8519962 L52.4819969,63.8519962 L52.4819969,66.287996 L44.8859973,66.287996 L44.8859973,54.0539968 L52.4759969,54.0539968 L52.4759969,56.4899966 L47.3279972,56.4899966 Z M65.0099961,54.0539968 L65.0099961,66.287996 L62.5679963,66.287996 L62.5679963,58.0679965 L59.5679964,62.0099963 L56.6099966,58.0979965 L56.6099966,66.287996 L54.1739968,66.287996 L54.1739968,54.0539968 L56.6099966,54.0539968 L59.5679964,57.9659965 L62.5259963,54.0539968 L62.5259963,54.0539968 L62.5259963,54.0539968 L65.0099961,54.0539968 Z M73.0679956,59.9759964 C73.3721207,60.0894967 73.6558088,60.2516042 73.9079956,60.4559964 C74.4141981,60.8653798 74.7930369,61.4107412 74.9999955,62.0279963 C75.1037832,62.3518522 75.1564159,62.6899163 75.1559955,63.0299962 C75.1597555,63.4673597 75.0718687,63.900662 74.8979955,64.3019962 C74.7287092,64.6873003 74.4885439,65.0373717 74.1899956,65.3339961 C73.8949028,65.6313509 73.5442619,65.8678296 73.1579956,66.0299961 C72.7547565,66.2045212 72.3193604,66.2924181 71.8799957,66.287996 L66.737996,66.287996 L66.737996,54.0539734 L71.1539958,54.0539734 C71.591769,54.0523062 72.0250526,54.142233 72.4259957,54.3179968 C72.8128177,54.4850868 73.1648959,54.7231975 73.4639956,55.0199967 C73.7595022,55.320157 73.9974399,55.6719794 74.1659956,56.0579967 C74.3417593,56.4589398 74.4316861,56.8922233 74.4299956,57.3299966 C74.4322167,57.8550081 74.3044142,58.3724019 74.0579956,58.8359965 C73.8168602,59.2866917 73.4762472,59.67655 73.0619956,59.9759964 L73.0679956,59.9759964 Z M69.1739959,58.4399965 L70.4579958,58.4399965 C70.7549484,58.4435459 71.0406748,58.3266578 71.2499958,58.1159965 C71.4655578,57.9120086 71.5853321,57.6267281 71.5799957,57.3299966 C71.584081,57.0317541 71.4646422,56.7451009 71.2499958,56.5379966 C71.0412865,56.3257129 70.7556907,56.2067146 70.4579958,56.2079864 L69.1679959,56.2079864 L69.1739959,58.4399965 Z M71.0099958,64.1339962 C71.3069484,64.1375455 71.5926747,64.0206575 71.8019957,63.8099962 C72.0166264,63.607858 72.1363834,63.324796 72.1319957,63.0299962 C72.125567,62.4120307 71.6279182,61.9117207 71.0099958,61.9019963 L69.1679959,61.9019963 L69.1679959,64.1339962 L71.0039958,64.1339962 L71.0099958,64.1339962 Z M83.771995,66.287996 L82.9319951,64.0379962 L79.4039953,64.0379962 L78.5519953,66.287996 L75.9419955,66.287996 L80.5739952,54.0539968 L81.7739951,54.0539968 L86.3939949,66.287996 L83.771995,66.287996 Z M80.2259952,61.8539963 L82.0979951,61.8539963 L81.1799952,59.4059965 L81.1799952,59.4059965 L80.2259952,61.8539963 Z M90.9539946,66.3360203 C90.469813,66.337772 89.9902484,66.2418591 89.5439947,66.0539961 C89.091338,65.8772415 88.6820586,65.6050707 88.3439947,65.2559961 C87.9985285,64.9149436 87.726901,64.5064811 87.5459948,64.0559962 C87.3589058,63.6074031 87.2630408,63.1260386 87.2639877,62.6399963 L89.6639947,62.6399963 C89.6569221,62.9770185 89.7919304,63.3014739 90.0359946,63.5339962 C90.2656697,63.7749664 90.585123,63.9097018 90.9179946,63.9059962 C91.2550168,63.9130688 91.5794722,63.7780605 91.8119945,63.5339962 C92.0560588,63.3014739 92.1910671,62.9770185 92.1839945,62.6399963 C92.1961919,62.4972552 92.1756715,62.3536124 92.1239945,62.2199963 C92.0917954,62.1573675 92.046829,62.1021815 91.9919945,62.0579963 C91.8089147,61.9102059 91.607183,61.7871496 91.3919946,61.6919963 L90.5339946,61.2959963 C89.7498139,61.0793954 89.0213584,60.6967517 88.3979947,60.1739964 C88.0400508,59.8652359 87.7534438,59.4824109 87.5579948,59.0519965 C87.3638949,58.6180525 87.2656619,58.1473526 87.2699948,57.6719966 C87.2695194,57.186001 87.3653658,56.7047299 87.5519948,56.2559966 C87.7343958,55.8062999 88.0058335,55.3981229 88.3499947,55.0559967 C89.3852543,53.9922989 90.967236,53.6730435 92.3339945,54.2519968 C92.7831297,54.4381857 93.1909676,54.711437 93.5339944,55.0559967 C93.8685856,55.4046544 94.1369551,55.8112748 94.3259944,56.2559966 C94.5146506,56.7041106 94.6105796,57.1857963 94.6080453,57.6719966 L92.2079945,57.6719966 C92.2047106,56.9741689 91.6398222,56.4092806 90.9419946,56.4059966 C90.609123,56.402291 90.2896696,56.5370264 90.0599946,56.7779966 C89.8195676,57.0130007 89.6852462,57.3358053 89.6879947,57.6719966 C89.6837894,57.7539426 89.6837894,57.8360505 89.6879947,57.9179965 C89.7169692,58.0392381 89.776925,58.1508801 89.8619946,58.2419965 C89.9984492,58.3896083 90.158666,58.51332 90.3359946,58.6079965 C90.6317016,58.7666435 90.9434585,58.8933576 91.2659946,58.9859965 L91.3259946,59.0159965 L91.3739946,59.0159965 C91.8359945,59.2079965 92.2559945,59.3879965 92.6279945,59.5679964 C92.9780239,59.7357788 93.3014828,59.9541136 93.5879944,60.2159964 C94.2565776,60.8307406 94.6208463,61.7084966 94.5839944,62.6159963 C94.5879259,63.1023247 94.4919434,63.5842796 94.3019944,64.0319962 C94.1144001,64.4774922 93.8458655,64.8843628 93.5099944,65.2319961 C92.8235733,65.9217361 91.8910888,66.3102713 90.9179946,66.311996 L90.9539946,66.3360203 Z M23.3819986,66.3360203 C22.897817,66.337772 22.4182524,66.2418591 21.9719987,66.0539961 C21.5317484,65.8704044 21.1336179,65.598859 20.8019988,65.2559961 C20.1088947,64.564946 19.7219987,63.6247238 19.7279988,62.6459963 L22.1279987,62.6459963 C22.1209261,62.9830185 22.2559344,63.3074739 22.4999987,63.5399962 C22.7282433,63.7794372 23.0452065,63.914038 23.3759986,63.9119962 C24.0738263,63.9087122 24.6387146,63.3438239 24.6419985,62.6459963 C24.6522118,62.5037953 24.633851,62.3609888 24.5879985,62.2259963 C24.5536108,62.163093 24.5066347,62.1079472 24.4499985,62.0639963 C24.2682618,61.9143081 24.0662598,61.7910869 23.8499986,61.6979963 L22.9859986,61.3019963 C22.2023672,61.0840083 21.4741929,60.7015122 20.8499988,60.1799964 C20.1268289,59.5511531 19.7165576,58.6362698 19.7279988,57.6779966 C19.7219987,56.699269 20.1088947,55.7590469 20.8019988,55.0679967 C21.1347677,54.7249951 21.5324995,54.451682 21.9719987,54.2639968 C22.8728866,53.8805113 23.8911106,53.8805113 24.7919985,54.2639968 C25.2411338,54.4501857 25.6489716,54.723437 25.9919985,55.0679967 C26.3267135,55.4153419 26.5933213,55.8223766 26.7779984,56.2679966 C26.9687125,56.7156811 27.0666858,57.197383 27.066002,57.6839966 L24.6659985,57.6839966 C24.6730711,57.3469743 24.5380628,57.0225189 24.2939986,56.7899966 C24.0614762,56.5459324 23.7370208,56.4109241 23.3999986,56.4179966 C23.0692065,56.4159548 22.7522433,56.5505556 22.5239987,56.7899966 C22.2835716,57.0250007 22.1492502,57.3478053 22.1519987,57.6839966 C22.1447701,57.7658372 22.1447701,57.8481559 22.1519987,57.9299965 C22.1746538,58.0535476 22.2355136,58.1668727 22.3259987,58.2539965 C22.4614931,58.4026538 22.6219014,58.5265134 22.7999986,58.6199965 C23.0935412,58.7787901 23.4033261,58.9055203 23.7239986,58.9979965 L23.7899986,59.0279965 L23.8379986,59.0279965 C24.2999986,59.2199965 24.7199985,59.3999965 25.0859985,59.5799964 C25.4370101,59.7492486 25.7622476,59.9674204 26.0519984,60.2279964 C26.7185373,60.8441684 27.0823958,61.7209358 27.0479984,62.6279963 C27.0498633,63.1147268 26.9518422,63.596664 26.7599984,64.0439962 C26.5767332,64.4903612 26.3099606,64.8976476 25.9739985,65.2439961 C25.2861095,65.935208 24.3511729,66.3238652 23.3759986,66.323996 L23.3819986,66.3360203 Z M100.013994,66.3360203 C99.5298125,66.337772 99.0502479,66.2418591 98.6039941,66.0539961 C98.1626384,65.8746637 97.7624867,65.6072154 97.4279942,65.2679961 C96.7348901,64.576946 96.3479941,63.6367238 96.3539255,62.6579963 L98.7539941,62.6579963 C98.7469215,62.9950185 98.8819298,63.3194739 99.1259941,63.5519962 C99.3542387,63.7914372 99.6712019,63.926038 100.001994,63.9239962 C100.699822,63.9207122 101.26471,63.3558239 101.267994,62.6579963 C101.278207,62.5157953 101.259846,62.3729888 101.213994,62.2379963 C101.179809,62.1766908 101.135131,62.1218594 101.081994,62.0759963 C100.898914,61.9282059 100.697182,61.8051496 100.481994,61.7099963 L99.6179941,61.3139963 C98.8343626,61.0960083 98.1061883,60.7135122 97.4819942,60.1919964 C96.7588244,59.5631531 96.348553,58.6482698 96.3599943,57.6899966 C96.3491782,56.7079884 96.7341082,55.7629637 97.4279942,55.0679967 C97.7607631,54.7249951 98.1584949,54.451682 98.5979941,54.2639968 C99.4988821,53.8805113 100.517106,53.8805113 101.417994,54.2639968 C101.867129,54.4501857 102.274967,54.723437 102.617994,55.0679967 C102.952585,55.4166544 103.220955,55.8232748 103.409994,56.2679966 C103.596623,56.7167299 103.692469,57.198001 103.691996,57.6839966 L101.291994,57.6839966 C101.299067,57.3469743 101.164058,57.0225189 100.919994,56.7899966 C100.687472,56.5459324 100.363016,56.4109241 100.025994,56.4179966 C99.6952019,56.4159548 99.3782387,56.5505556 99.1499941,56.7899966 C98.909567,57.0250007 98.7752456,57.3478053 98.7779941,57.6839966 C98.7707655,57.7658372 98.7707655,57.8481559 98.7779941,57.9299965 C98.8006493,58.0535476 98.861509,58.1668727 98.9519941,58.2539965 C99.0874885,58.4026538 99.2478969,58.5265134 99.4259941,58.6199965 C99.7195367,58.7787901 100.029322,58.9055203 100.349994,58.9979965 L100.415994,59.0279965 L100.463994,59.0279965 C100.925994,59.2199965 101.345994,59.3999965 101.711994,59.5799964 C102.063005,59.7492486 102.388243,59.9674204 102.677994,60.2279964 C103.346577,60.8427406 103.710846,61.7204966 103.673994,62.6279963 C103.674948,63.1140386 103.579083,63.5954031 103.391994,64.0439962 C103.2044,64.4894922 102.935865,64.8963628 102.599994,65.2439961 C101.912105,65.935208 100.977168,66.3238652 100.001994,66.323996 L100.013994,66.3360203 Z M110.381993,59.9879964 L110.381993,66.287996 L107.945994,66.287996 L107.945994,59.9879964 L104.243994,54.0539968 L107.123994,54.0539968 L109.163993,57.3479966 L111.221993,54.0539968 L114.101993,54.0539968 L110.381993,59.9879964 Z" id="Shape" fill="#FFFFFF"></path>
            <g id="Icon" transform="translate(21.599999, 0.000000)">
                <path d="M46.8779972,19.4939988 L24.8759985,19.4939988 C24.391217,19.4939988 23.9972964,19.8852284 23.9939986,20.3699988 L23.9939986,33.077998 C23.9972964,33.5627684 24.391217,33.953998 24.8759985,33.953998 L46.8779972,33.953998 C47.3627788,33.953998 47.7566993,33.5627684 47.7599972,33.077998 L47.7599972,20.3699988 C47.7566993,19.8852284 47.3627788,19.4939988 46.8779972,19.4939988 L46.8779972,19.4939988 Z" id="Path" fill="#FFFFFF"></path>
                <path d="M47.0819972,37.1159978 L24.6479985,37.1159978 C22.5285952,37.112694 20.8113026,35.3954013 20.8079988,33.275998 L20.8079988,20.1719988 C20.8113026,18.0525955 22.5285952,16.3353029 24.6479985,16.331999 L47.0579972,16.331999 C49.1774005,16.3353029 50.8946931,18.0525955 50.897997,20.1719988 L50.897997,33.275998 C50.8947693,35.3860845 49.192022,37.0995409 47.0819972,37.1159978 L47.0819972,37.1159978 Z M24.6479985,18.5939989 C23.7764932,18.5939989 23.0699986,19.3004935 23.0699986,20.1719988 L23.0699986,33.275998 C23.0699986,34.1475033 23.7764932,34.8539979 24.6479985,34.8539979 L47.0579972,34.8539979 C47.9295025,34.8539979 48.6359971,34.1475033 48.6359971,33.275998 L48.6359971,20.1719988 C48.6359971,19.3004935 47.9295025,18.5939989 47.0579972,18.5939989 L24.6479985,18.5939989 Z" id="Shape" fill="#FFFFFF"></path>
                <path d="M29.2439983,29.1299983 L42.4019975,29.1299983 L42.4019975,29.8079982 C42.4019975,30.1782215 42.2545209,30.5331944 41.9921711,30.7944182 C41.7298214,31.055642 41.3742174,31.2015939 41.0039976,31.2000111 L30.6359982,31.2000111 C29.8672178,31.2000111 29.2439983,30.5767785 29.2439983,29.8079982 L29.2439983,29.1299983 L29.2439983,29.1299983 Z" id="Path" fill="#00B8DE"></path>
                <path d="M50.144997,25.1489985 L55.9529967,25.1489985 L55.9529967,25.8269985 C55.9529967,26.5957788 55.3297771,27.2189984 54.5609967,27.2189984 L51.5609969,27.2189984 C50.7922166,27.2189984 50.168997,26.5957788 50.168997,25.8269985 L50.168997,25.1489985 L50.144997,25.1489985 Z" id="Path" fill="#FFFFFF" transform="translate(53.048997, 26.183998) rotate(-90.000000) translate(-53.048997, -26.183998) "></path>
                <path d="M17.174999,25.1669985 L20.1749988,25.1669985 C20.9437791,25.1669985 21.5669987,25.7902181 21.5669987,26.5589984 L21.5669987,27.2369984 L15.7589991,27.2369984 L15.7589991,26.5589984 C15.7589991,25.7902181 16.3822187,25.1669985 17.150999,25.1669985 L17.174999,25.1669985 Z" id="Path" fill="#FFFFFF" transform="translate(18.662999, 26.201998) rotate(-90.000000) translate(-18.662999, -26.201998) "></path>
                <path d="M37.9079977,30.5879982 L33.707998,30.5879982 C33.6188445,30.6026053 33.5294752,30.5631947 33.480137,30.4875148 C33.4307988,30.4118348 33.4307988,30.3141615 33.480137,30.2384816 C33.5294752,30.1628016 33.6188445,30.1233911 33.707998,30.1379982 L37.9079977,30.1379982 C37.9971512,30.1233911 38.0865205,30.1628016 38.1358587,30.2384816 C38.1851969,30.3141615 38.1851969,30.4118348 38.1358587,30.4875148 C38.0865205,30.5631947 37.9971512,30.6026053 37.9079977,30.5879982 L37.9079977,30.5879982 Z" id="Path" fill="#FFFFFF"></path>
                <path d="M31.3559981,24.2399986 L31.0199982,24.2399986 C30.9936251,24.1340365 30.9553833,24.0313875 30.9059982,23.9339986 L31.1639981,23.6759986 C31.1723559,23.6547924 31.1723559,23.6312048 31.1639981,23.6099986 C31.173339,23.5869075 31.173339,23.5610897 31.1639981,23.5379986 L30.6899982,23.0639986 C30.6509792,23.0281585 30.5910171,23.0281585 30.5519982,23.0639986 L30.3119982,23.3039986 C30.2172917,23.2472685 30.1167014,23.2009969 30.0119982,23.1659986 L30.0119982,22.7999986 C30.0119982,22.7469793 29.9690175,22.7039986 29.9159982,22.7039986 L29.2439983,22.7039986 C29.1909789,22.7039986 29.1479983,22.7469793 29.1479983,22.7999986 L29.1479983,23.1359986 C29.0437639,23.1644707 28.9431143,23.2047305 28.8479983,23.2559986 L28.5419983,22.9919986 C28.5187962,22.9832464 28.4932004,22.9832464 28.4699983,22.9919986 C28.4451987,22.9979427 28.4224224,23.0103661 28.4039983,23.0279986 L27.9659983,23.5379986 C27.9309499,23.5750191 27.9309499,23.6329781 27.9659983,23.6699986 L28.1999983,23.8679986 C28.1430977,23.962615 28.0968173,24.0632245 28.0619983,24.1679986 L27.6959983,24.1679986 C27.642979,24.1679986 27.5999984,24.2109792 27.5999984,24.2639986 L27.5999984,24.9359985 C27.5999984,24.9890178 27.642979,25.0319985 27.6959983,25.0319985 L28.0319983,25.0319985 C28.0604369,25.140084 28.1006789,25.2447133 28.1519983,25.3439985 L27.8939983,25.6019985 C27.8756276,25.6190299 27.8651866,25.6429474 27.8651866,25.6679985 C27.8651866,25.6930495 27.8756276,25.716967 27.8939983,25.7339985 L28.3679983,26.2079984 C28.3850984,26.2284177 28.4103645,26.2402144 28.4369983,26.2402144 C28.4636321,26.2402144 28.4888982,26.2284177 28.5059983,26.2079984 L28.7399983,25.9739985 C28.8347651,26.0290439 28.9353904,26.073319 29.0399983,26.1059984 L29.0399983,26.4719984 C29.0399983,26.5250178 29.0829789,26.5679984 29.1359983,26.5679984 L29.8079982,26.5679984 C29.8610176,26.5679984 29.9039982,26.5250178 29.9039982,26.4719984 L29.9039982,26.1359984 C30.011898,26.1096665 30.1165395,26.0714322 30.2159982,26.0219984 L30.4739982,26.2799984 C30.5110187,26.3150468 30.5689777,26.3150468 30.6059982,26.2799984 L31.0799981,25.8059985 C31.1004174,25.7888983 31.1122141,25.7636323 31.1122141,25.7369985 C31.1122141,25.7103646 31.1004174,25.6850986 31.0799981,25.6679985 L30.8459982,25.4279985 C30.9031842,25.3343348 30.9475782,25.2334393 30.9779982,25.1279985 L31.3439981,25.1279985 C31.3970175,25.1279985 31.4399981,25.0850178 31.4399981,25.0319985 L31.4399981,24.3599985 C31.4471716,24.332712 31.4419787,24.3036514 31.4257992,24.2805378 C31.4096197,24.2574242 31.3840918,24.2425981 31.3559981,24.2399986 Z M29.5559982,25.3919985 C29.1318436,25.3919985 28.7879983,25.0481532 28.7879983,24.6239985 C28.7879983,24.1998439 29.1318436,23.8559986 29.5559982,23.8559986 C29.9801529,23.8559986 30.3239983,24.1998439 30.3239983,24.6239985 C30.3240997,24.8319121 30.2398995,25.0309829 30.0906383,25.1757211 C29.9413771,25.3204593 29.7398103,25.3984958 29.5319982,25.3919985 L29.5559982,25.3919985 Z" id="Shape" fill="#00B8DE"></path>
                <path d="M44.0339974,24.2399986 L43.6979974,24.2399986 C43.6716243,24.1340365 43.6333826,24.0313875 43.5839974,23.9339986 L43.8419974,23.6759986 C43.8503551,23.6547924 43.8503551,23.6312048 43.8419974,23.6099986 C43.8513382,23.5869075 43.8513382,23.5610897 43.8419974,23.5379986 L43.3619974,23.0639986 C43.3249769,23.0289502 43.2670179,23.0289502 43.2299974,23.0639986 L42.9899974,23.3039986 C42.8947009,23.2483947 42.7942293,23.2021778 42.6899975,23.1659986 L42.6899975,22.7999986 C42.6899975,22.7469793 42.6470168,22.7039986 42.5939975,22.7039986 L41.9219975,22.7039986 C41.8689782,22.7039986 41.8259975,22.7469793 41.8259975,22.7999986 L41.8259975,23.1359986 C41.7201797,23.1654813 41.6176482,23.2056897 41.5199975,23.2559986 L41.2199975,22.9919986 C41.1967955,22.9832464 41.1711996,22.9832464 41.1479975,22.9919986 C41.1231979,22.9979427 41.1004217,23.0103661 41.0819976,23.0279986 L40.6439976,23.5379986 C40.6089492,23.5750191 40.6089492,23.6329781 40.6439976,23.6699986 L40.8779976,23.8679986 C40.8210969,23.962615 40.7748166,24.0632245 40.7399976,24.1679986 L40.3739976,24.1679986 C40.3209783,24.1679986 40.2779976,24.2109792 40.2779976,24.2639986 L40.2779976,24.9359985 C40.2779976,24.9890178 40.3209783,25.0319985 40.3739976,25.0319985 L40.7099976,25.0319985 C40.7384361,25.140084 40.7786781,25.2447133 40.8299976,25.3439985 L40.5719976,25.6019985 C40.5536268,25.6190299 40.5431858,25.6429474 40.5431858,25.6679985 C40.5431858,25.6930495 40.5536268,25.716967 40.5719976,25.7339985 L41.0459976,26.2079984 C41.0619247,26.2282286 41.08625,26.2400369 41.1119975,26.2400369 C41.1377451,26.2400369 41.1620704,26.2282286 41.1779975,26.2079984 L41.4179975,25.9739985 C41.5127643,26.0290439 41.6133896,26.073319 41.7179975,26.1059984 L41.7179975,26.4719984 C41.7179975,26.5250178 41.7609782,26.5679984 41.8139975,26.5679984 L42.4859975,26.5679984 C42.5390168,26.5679984 42.5819975,26.5250178 42.5819975,26.4719984 L42.5819975,26.1359984 C42.6882693,26.1106345 42.7910345,26.0723494 42.8879974,26.0219984 L43.1519974,26.2799984 C43.1890179,26.3150468 43.2469769,26.3150468 43.2839974,26.2799984 L43.7579974,25.8059985 C43.7784167,25.7888983 43.7902133,25.7636323 43.7902133,25.7369985 C43.7902133,25.7103646 43.7784167,25.6850986 43.7579974,25.6679985 L43.5239974,25.4279985 C43.5787379,25.3330769 43.6229979,25.2324861 43.6559974,25.1279985 L44.0219974,25.1279985 C44.0750167,25.1279985 44.1179974,25.0850178 44.1179974,25.0319985 L44.1179974,24.3599985 C44.1251708,24.332712 44.1199779,24.3036514 44.1037984,24.2805378 C44.0876189,24.2574242 44.0620911,24.2425981 44.0339974,24.2399986 L44.0339974,24.2399986 Z M42.2339975,25.3919985 C41.8098428,25.3919985 41.4659975,25.0481532 41.4659975,24.6239985 C41.4659975,24.1998439 41.8098428,23.8559986 42.2339975,23.8559986 C42.6581521,23.8559986 43.0019975,24.1998439 43.0019975,24.6239985 C43.002099,24.8319121 42.9178988,25.0309829 42.7686375,25.1757211 C42.6193763,25.3204593 42.4178095,25.3984958 42.2099975,25.3919985 L42.2339975,25.3919985 Z" id="Shape" fill="#00B8DE"></path>
                <path d="M13.2779992,43.6019974 C5.85707867,32.4800775 7.82517274,17.5810814 17.8794797,8.76756476 C27.9337867,-0.045951887 42.962209,-0.045951887 53.016516,8.76756476 C63.070823,17.5810814 65.0389171,32.4800775 57.6179966,43.6019974 L59.4959965,43.6019974 C66.7747034,31.7639056 64.355279,16.3893106 53.7925878,7.35883194 C43.2298965,-1.67164676 27.6660993,-1.67164676 17.103408,7.35883194 C6.54071673,16.3893106 4.12129235,31.7639056 11.3999993,43.6019974 L13.2779992,43.6019974 Z" id="Path" fill="#FFFFFF"></path>
                <ellipse id="Oval" fill="#FFFFFF" cx="35.4479979" cy="45.8879973" rx="34.9079979" ry="1"></ellipse>
            </g>
        </g>
    </g>
</svg>